<svg xmlns="http://www.w3.org/2000/svg" width="107.131" height="107.131" viewBox="0 0 107.131 107.131">
  <defs>
    <style>
      .cls-1 {
        fill: #f0f0f0;
        mix-blend-mode: multiply;
        isolation: isolate;
      }
    </style>
  </defs>
  <g id="Group_768" data-name="Group 768" transform="translate(-257.603 -1307.144)">
    <path id="Path_272" data-name="Path 272" class="cls-1" d="M315.51,1307.314a53.571,53.571,0,1,0,49.052,49.055A53.569,53.569,0,0,0,315.51,1307.314Zm-.969,5.794c23.134,1.6,42.842,21.482,44.253,44.629a47.49,47.49,0,0,1-8.415,30.128,2.136,2.136,0,0,1-3.38.15c-.746-.878-1.528-1.733-2.353-2.533a47.6,47.6,0,0,0-17.99-11.293l-.028-.01a.775.775,0,0,1-.206-1.365l.013-.008a27.028,27.028,0,1,0-30.577,0l.015.01a.774.774,0,0,1-.2,1.373h0a46.253,46.253,0,0,0-17.988,11.293q-1.245,1.245-2.36,2.571a2.108,2.108,0,0,1-3.337-.152,47.27,47.27,0,0,1-8.542-27.192A47.792,47.792,0,0,1,314.541,1313.108Zm-5.751,58.361a21.07,21.07,0,1,1,23.446-20.937A21.05,21.05,0,0,1,308.79,1371.469Zm-29.709,24.525a2.071,2.071,0,0,1-.231-2.832,41.2,41.2,0,0,1,64.6,0,2.076,2.076,0,0,1-.233,2.83,47.568,47.568,0,0,1-64.134,0Z" transform="translate(0 0)"/>
  </g>
</svg>
